inDegrees=yes
name=ik_appendData_armMove
DataType=double
version=3
OpenSimVersion=4.5
endheader
time	pelvis_tilt	pelvis_list	pelvis_rotation	pelvis_tx	pelvis_ty	pelvis_tz	hip_flexion_r	hip_adduction_r	hip_rotation_r	knee_angle_r	knee_angle_r_beta	ankle_angle_r	subtalar_angle_r	mtp_angle_r	hip_flexion_l	hip_adduction_l	hip_rotation_l	knee_angle_l	knee_angle_l_beta	ankle_angle_l	subtalar_angle_l	mtp_angle_l	lumbar_extension	lumbar_bending	lumbar_rotation	arm_flex_r	arm_add_r	arm_rot_r	elbow_flex_r	pro_sup_r	wrist_flex_r	wrist_dev_r	arm_flex_l	arm_add_l	arm_rot_l	elbow_flex_l	pro_sup_l	wrist_flex_l	wrist_dev_l
75	2.897599726796769	89.6516872360682	-2.897603862591792	0	0.9399999999999999	0	44.86256349089699	-10.00216828776644	0	59.97932836363979	1.046836763080337	-5.000138517870071	0	0	44.86256349089699	-10.00216828776644	0	59.97932836363979	1.046836763080337	-5.000138517870071	0	0	-0.02823148357959865	0.3468819628461709	-0.00688205047649643	0	-13.55108813457204	0	75.39374630364307	44.9944787013454	0	0	-3.240856992772963	0.03474653803263188	3.477224505626403	1.028229826378447	44.9944787013454	0	0
76	2.871975384599419	89.65454551111449	-2.874258532217476	0	0.9399999999999999	0	44.86381583234616	-10.00212060117195	0	59.97951422654427	1.046840006999977	-5.000134873631194	0	0	44.86381583234616	-10.00212060117195	0	59.97951422654427	1.046840006999977	-5.000134873631194	0	0	-0.02009545072960046	0.3413371068952014	0.004253252764328152	0	-13.5590723992659	0	75.39016000775402	44.9945822152127	0	0	-3.259123339186116	-2.071891897442619	4.508063878894221	3.833607322014102	44.9945822152127	0	0
77	2.869143129325048	89.65292153598973	-2.875322198513173	0	0.9399999999999999	0	44.86385971788941	-10.00211821484689	0	59.97951944644507	1.046840098104433	-5.0001346754508	0	0	44.86385971788941	-10.00211821484689	0	59.97951944644507	1.046840098104433	-5.0001346754508	0	0	-0.01099318317978762	0.3455104700155235	0.01098460507959724	0	-13.55931024657422	0	75.39003433254339	44.99458703843655	0	0	-3.201198250379597	-1.098364344061985	6.15695663190375	3.348542798392498	44.99458703843655	0	0
78	2.875664192698861	89.65715722217081	-2.871182381278303	0	0.9399999999999999	0	44.86390323020109	-10.00211585059871	0	59.97952462214685	1.04684018843747	-5.000134479168755	0	0	44.86390323020109	-10.00211585059871	0	59.97952462214685	1.04684018843747	-5.000134479168755	0	0	-0.016134837870066	0.3405406288141868	0.002593191856892059	0	-13.55954610266611	0	75.38990972616004	44.99459181811424	0	0	-2.23037365054073	-0.9768011506268007	7.160840991847891	3.099956414484102	44.99459181811424	0	0
79	2.866884143032595	89.65352937340529	-2.867203592620447	0	0.9399999999999999	0	44.86409623567354	-10.00210782933642	0	59.97955225038586	1.046840670641208	-5.000133849814642	0	0	44.86409623567354	-10.00210782933642	0	59.97955225038586	1.046840670641208	-5.000133849814642	0	0	-0.019179291798341	0.3425717871518349	0.007621974285411018	0	-13.56074145140596	0	75.38935702051057	44.99460887405813	0	0	-2.58197413965396	-0.8833256774184949	9.061460953807705	2.801213514460536	44.99460887405813	0	0
80	2.85768108684051	89.65809756182213	-2.859055633830751	0	0.9399999999999999	0	44.86460158957431	-10.00208835271506	0	59.97962755091196	1.046841984883317	-5.000132350752808	0	0	44.86460158957431	-10.00208835271506	0	59.97962755091196	1.046841984883317	-5.000132350752808	0	0	-0.0111684864471389	0.3380561855388426	-0.001542239862872471	0	-13.56396511777686	0	75.38790985242299	44.99465096026208	0	0	-1.319308476923145	0.4202498534813652	14.0070908255592	0.5694245185079833	44.99465096026208	0	0
81	2.842834897080929	89.65746186184059	-2.838356199322284	0	0.9399999999999999	0	44.8655070569999	-10.00205498171117	0	59.9797642911077	1.046844371449952	-5.00012981883956	0	0	44.8655070569999	-10.00205498171117	0	59.9797642911077	1.046844371449952	-5.00012981883956	0	0	-0.02213986172768118	0.3571891415881592	-0.01120383085160769	0	-13.5698197633382	0	75.38531689278398	44.99472386693962	0	0	-1.390263776617184	1.133336393718768	20.93373321666126	0.08284012942517427	44.99472386693962	0	0
82	2.820459042973269	89.66046422274776	-2.820812111514012	0	0.9399999999999999	0	44.86657660730469	-10.00201600944147	0	59.97992580253028	1.046847190356056	-5.000126873956334	0	0	44.86657660730469	-10.00201600944147	0	59.97992580253028	1.046847190356056	-5.000126873956334	0	0	-0.01827006916582287	0.3314661807025537	-0.000305790758435863	0	-13.57675562039209	0	75.3822540546085	44.99480926579902	0	7.121748451442966e-51	-2.50752431758512	2.020025482418315	32.29230166353059	0.07036590802998488	44.99480926579902	0	7.121748451442966e-51
83	2.802071978437207	89.6534044523297	-2.801378870986737	0	0.9399999999999999	0	44.86759556814383	-10.00197910496019	0	59.98007935528327	1.046849870357171	-5.000124091575459	0	0	44.86759556814383	-10.00197910496019	0	59.98007935528327	1.046849870357171	-5.000124091575459	0	0	-0.01800664814194559	0.3538129810909267	-0.00324078837991641	0	-13.58337290970858	0	75.3793360882015	44.99489026535234	0	0	-3.629443329470799	2.870461452976008	43.99556633705756	0.04686548800349261	44.99489026535234	0	0
84	2.773129147531326	89.65295449809052	-2.772304699433973	0	0.9399999999999999	0	44.86898386344011	-10.00192887759095	0	59.98028830762158	1.046853517263454	-5.000120305273573	0	0	44.86898386344011	-10.00192887759095	0	59.98028830762158	1.046853517263454	-5.000120305273573	0	0	-0.01809434189597066	0.349188166716739	-0.003034101586902763	0	-13.59239495940746	0	75.37536047042052	44.99500052229062	0	0	-4.689243716949619	4.494346910017278	58.88871841934316	0.04189761184767397	44.99500052229062	0	0
85	2.760863337606204	89.66600511398114	-2.762649403567306	0	0.9399999999999999	0	44.86967512323907	-10.00190408623944	0	59.9803919393982	1.046855325979166	-5.000118443114395	0	0	44.86967512323907	-10.00190408623944	0	59.9803919393982	1.046855325979166	-5.000118443114395	0	0	-0.02746529836828583	0.3354139287275714	-0.006952040548664162	0	-13.59689430783843	0	75.37338093156841	44.99505508083952	0	0	-5.147326532045106	4.984902417664605	70.25249503341138	0.05133023686719479	44.99505508083952	0	0
86	2.76196349149444	89.65890773095015	-2.760435622141713	0	0.9399999999999999	0	44.86988703050009	-10.00189544948858	0	59.98042199975337	1.046855850631338	-5.000117770914092	0	0	44.86988703050009	-10.00189544948858	0	59.98042199975337	1.046855850631338	-5.000117770914092	0	0	-0.01727743029105294	0.3345968236437982	-0.01064086026838002	0	-13.59821245455874	0	75.37277409765035	44.99507354741466	0	0	-4.320792970511951	4.74697801868661	77.48532481724921	0.05753545606459202	44.99507354741466	0	0
87	2.767567747182024	89.65584137905186	-2.767683511912505	0	0.9399999999999999	0	44.86955737771566	-10.00190535888739	0	59.9803696213464	1.046854936455679	-5.000118472028682	0	0	44.86955737771566	-10.00190535888739	0	59.9803696213464	1.046854936455679	-5.000118472028682	0	0	-0.01757842319448707	0.3422866436168027	-0.01162964781204523	0	-13.59595346400395	0	75.37371811060824	44.99505074452492	0	0	-3.902316554304599	5.174857420291827	80.16952280344047	0.08617230297537727	44.99505074452492	0	0
88	2.766643725013166	89.65087452187613	-2.768807563109652	0	0.9399999999999999	0	44.86959026915105	-10.00190367739338	0	59.98037352869402	1.04685500465176	-5.000118335434094	0	0	44.86959026915105	-10.00190367739338	0	59.98037352869402	1.04685500465176	-5.000118335434094	0	0	-0.01881277218147373	0.3487999149598657	-0.0087759542032639	0	-13.59613455273315	0	75.37362391947467	44.99505419869205	0	0	-3.580755999901953	4.948857682491108	80.0539275980491	0.07217046752954773	44.99505419869205	0	0
89	2.791235600198646	89.65483713019641	-2.790551470199067	0	0.9399999999999999	0	44.87069044907753	-10.00185429546937	0	59.98050154893569	1.046857239026487	-5.000114517057449	0	0	44.87069044907753	-10.00185429546937	0	59.98050154893569	1.046857239026487	-5.000114517057449	0	0	-0.0152903679854642	0.3437242906811333	-0.01167134829849145	0	-13.60232505118264	0	75.37047334643928	44.99515939480224	0	0	-3.794098091394678	4.925739942651738	79.2965284643179	0.05040889655662973	44.99515939480224	0	0
90	2.847464784190357	89.65507718959817	-2.846681603059316	0	0.9399999999999999	0	44.87710301120418	-10.00159597216875	0	59.98126862232255	1.046870626982692	-5.000095256290195	0	0	44.87710301120418	-10.00159597216875	0	59.98126862232255	1.046870626982692	-5.000095256290195	0	0	-0.01651284226665236	0.343234501741102	-0.0110454009731614	0	-13.63971133799187	0	75.35210981819876	44.99572475114763	0	0	-3.217924971536496	5.696707520332994	78.31280638300595	0.04815099448212953	44.99572475114763	0	0
91	2.86804214719524	89.65470375502285	-2.869489532964156	0	0.9399999999999999	0	44.87971769323489	-10.0014999137757	0	59.98160679490632	1.046876529207718	-5.000088212094277	0	0	44.87971769323489	-10.0014999137757	0	59.98160679490632	1.046876529207718	-5.000088212094277	0	0	-0.01135871499342686	0.3412252440286746	-0.004226368333935133	0	-13.65568686367013	0	75.34462222068598	44.99593847928404	0	0	-2.902992653164524	5.43058361443765	74.77700709901856	0.03529709883539486	44.99593847928404	0	0
92	2.82501826880211	89.6555803382256	-2.834656113409628	0	0.9399999999999999	0	44.88189694034593	-10.0014336627396	0	59.98194002952669	1.046882345249025	-5.000083519179489	0	0	44.88189694034593	-10.0014336627396	0	59.98194002952669	1.046882345249025	-5.000083519179489	0	0	-0.0181276243227706	0.3351579802460049	0.006113725471591898	0	-13.67044468302532	0	75.3383815956029	44.99609079278467	0	0	-2.194021427064565	6.091663736476319	64.7909370089191	0.02438866145383576	44.99609079278467	0	0
